HIERARCHY
ROOT hip
{
	OFFSET 0.000000 0.000000 0.000000 
	CHANNELS 6 Xposition Yposition Zposition Xrotation Zrotation Yrotation
	JOINT abdomen
	{
		OFFSET 0.000000 3.402643 0.000000 
		CHANNELS 3 Xrotation Zrotation Yrotation
		JOINT chest
		{
			OFFSET 0.000000 8.438565 -0.680529 
			CHANNELS 3 Xrotation Zrotation Yrotation
			JOINT neck
			{
				OFFSET 0.000000 10.207942 -0.272212 
				CHANNELS 3 Xrotation Zrotation Yrotation
				JOINT head
				{
					OFFSET 0.000000 3.130431 0.000000 
					CHANNELS 3 Xrotation Zrotation Yrotation
					End Site
					{
						OFFSET 0.000000 3.130435 0.000000 
					}
				}
			}
			JOINT lCollar
			{
				OFFSET 3.470700 6.669187 -0.816635 
				CHANNELS 3 Yrotation Zrotation Xrotation
				JOINT lShldr
				{
					OFFSET 3.198488 0.000000 0.000000 
					CHANNELS 3 Zrotation Yrotation Xrotation
					JOINT lForeArm
					{
						OFFSET 10.139888 0.000000 0.000000 
						CHANNELS 3 Yrotation Zrotation Xrotation
						JOINT lHand
						{
							OFFSET 8.370511 0.000000 0.000000 
							CHANNELS 3 Zrotation Yrotation Xrotation
							End Site
							{
								OFFSET 4.083176 0.000000 0.000000 
							}
						}
					}
				}
			}
			JOINT rCollar
			{
				OFFSET -3.470700 6.669187 -0.816635 
				CHANNELS 3 Yrotation Zrotation Xrotation
				JOINT rShldr
				{
					OFFSET -3.198488 0.000000 0.000000 
					CHANNELS 3 Zrotation Yrotation Xrotation
					JOINT rForeArm
					{
						OFFSET -10.139888 0.000000 0.000000 
						CHANNELS 3 Yrotation Zrotation Xrotation
						JOINT rHand
						{
							OFFSET -8.370511 0.000000 0.000000 
							CHANNELS 3 Zrotation Yrotation Xrotation
							End Site
							{
								OFFSET -4.083176 0.000000 0.000000 
							}
						}
					}
				}
			}
		}
	}
	JOINT lThigh
	{
		OFFSET 5.308129 -1.633274 1.361059 
		CHANNELS 3 Xrotation Zrotation Yrotation
		JOINT lShin
		{
			OFFSET -2.041588 -20.007561 0.000000 
			CHANNELS 3 Xrotation Zrotation Yrotation
			JOINT lFoot
			{
				OFFSET 0.000000 -19.190928 -1.224953 
				CHANNELS 3 Xrotation Yrotation Zrotation
				End Site
				{
					OFFSET 0.000000 -2.449906 4.627600 
				}
			}
		}
	}
	JOINT rThigh
	{
		OFFSET -5.308129 -1.633274 1.361059 
		CHANNELS 3 Xrotation Zrotation Yrotation
		JOINT rShin
		{
			OFFSET 2.041588 -20.007561 0.000000 
			CHANNELS 3 Xrotation Zrotation Yrotation
			JOINT rFoot
			{
				OFFSET 0.000000 -19.190928 -1.224953 
				CHANNELS 3 Xrotation Yrotation Zrotation
				End Site
				{
					OFFSET 0.000000 -2.449906 4.627600 
				}
			}
		}
	}
}
MOTION
Frames: 10
Frame Time: 0.033333
-1.374555 51.860260 -2.413055 -0.512046 2.410351 -2.189260 0.000000 0.000000 0.000000 -4.265503 -0.917565 1.699314 2.242878 -0.507647 1.464873 9.888878 1.142572 -0.185510 -1.054611 6.200503 -3.182801 -19.156549 -17.450912 -2.172022 -20.097494 -6.469074 23.443241 2.207198 -4.807846 -3.535285 3.325997 -4.547693 -3.196894 12.557786 29.050943 -7.785275 -0.106578 3.353153 26.983759 -2.455014 6.984961 -3.576538 2.710507 6.360103 4.763984 1.537113 -1.819562 4.403173 -2.414180 0.113701 -3.165282 4.341713 -13.019802 -8.978536 -3.582913 3.893915 -7.476734 2.118623 0.050584 5.431692 
-0.798250 51.870728 -2.399550 0.295933 2.292545 -2.609240 0.000000 0.000000 0.000000 -5.008238 -0.790528 2.011796 2.329642 -0.478308 1.689476 9.174773 1.201162 -0.234324 -0.504124 6.161048 -3.870198 -18.707054 -15.470425 -2.399262 -17.696907 -6.511615 22.834431 1.857682 -5.191143 -3.515603 3.439578 -4.862034 -3.872157 12.622479 25.255152 -7.230205 -0.128445 3.180060 26.217869 -2.098494 6.761875 -3.544769 2.000449 5.935725 4.580324 1.441793 -1.996891 5.307601 -2.656430 0.061982 -2.756584 3.446468 -13.435649 -8.748734 -3.554822 3.660668 -7.200731 2.321053 0.110089 6.091561 
-0.147433 51.912998 -2.272109 -0.689907 2.213879 -2.941407 0.000000 0.000000 0.000000 -4.316532 -0.780696 2.158402 2.980667 -0.244022 1.787093 8.813407 1.162099 -0.244090 -0.067948 6.752830 -3.246193 -18.803810 -13.523227 -2.583600 -15.828441 -6.204565 22.724937 2.027394 -5.249487 -3.522934 3.400030 -5.415687 -3.249169 12.907776 21.751966 -7.112010 -0.165516 2.827809 25.858467 -1.729500 6.989627 -3.516548 3.199382 5.142066 4.347103 1.303905 -1.866712 5.890893 -2.819189 0.072142 -2.279466 4.487737 -14.073753 -9.269660 -3.541768 3.482301 -6.331632 2.714843 0.148216 7.007282 
0.448898 51.943474 -2.257489 -0.406696 1.998142 -3.537090 0.000000 0.000000 0.000000 -4.476389 -0.585475 2.275471 3.068484 -0.214706 2.050767 8.551641 1.191402 -0.146453 0.545039 7.001549 -3.424217 -18.459362 -11.364095 -2.756184 -13.768632 -5.967559 21.896425 1.815182 -5.457820 -3.518058 3.541759 -6.079881 -3.409440 13.321733 18.418274 -6.898221 -0.207080 2.580559 24.671873 -1.219718 6.834305 -3.470225 3.074697 4.784324 4.415454 1.208956 -2.185625 6.396024 -2.950517 0.081496 -1.590977 3.729241 -14.422853 -9.053104 -3.437445 3.260098 -5.386144 3.546924 0.174815 6.655765 
0.989225 51.998871 -2.278509 -0.175570 1.734342 -3.858903 0.000000 0.000000 0.000000 -4.530330 -0.468380 2.275394 3.318524 -0.048795 2.099609 8.036070 1.015625 -0.058585 0.906517 7.693871 -3.478743 -18.359062 -9.330869 -2.834691 -11.381788 -5.703568 20.856081 1.752299 -5.569496 -3.505437 3.337196 -6.804034 -3.454215 13.910089 15.498299 -6.696154 -0.235789 2.319611 23.866356 -0.985607 6.691724 -3.450438 2.944368 4.593918 4.579281 1.031616 -2.558568 6.633363 -2.805398 0.025188 -0.875298 2.897776 -14.553122 -8.658728 -2.825279 2.951503 -4.600078 3.880967 0.202654 6.265765 
1.465066 52.087711 -2.300923 0.097571 1.734322 -3.868960 0.000000 0.000000 0.000000 -4.586608 -0.468467 1.992201 3.388053 -0.292785 2.031274 7.804233 0.976561 0.088044 1.240490 7.369254 -3.565525 -17.411596 -7.647685 -3.365257 -8.623962 -5.475579 19.702843 2.058561 -5.609718 -3.526815 3.155330 -7.617406 -3.499415 14.393495 12.698927 -7.038700 -0.286262 1.904227 22.942133 -0.715320 6.619794 -3.419189 2.702110 4.146524 4.575842 0.730711 -2.873307 6.918470 -2.138218 -0.002751 0.125126 2.254276 -14.652344 -8.231663 -2.294798 2.498171 -3.826135 3.820663 0.152932 5.683072 
1.818589 52.168732 -2.296485 0.036972 1.413154 -3.643636 0.000000 0.000000 0.000000 -4.398465 -0.409927 1.914083 3.679178 -0.078086 1.806639 7.226829 0.781250 0.019663 1.154307 8.413608 -3.406757 -17.870333 -6.368441 -4.802721 -5.478881 -4.903412 18.074015 2.537249 -5.404171 -3.566710 2.608711 -7.870948 -3.375495 14.639772 9.985848 -6.453989 -0.316676 1.993677 19.904530 -1.251091 6.039886 -3.472646 2.859489 4.108912 4.764130 0.418551 -3.172744 6.600408 -1.700538 -0.016231 1.138462 2.264364 -14.215679 -7.787317 -1.805753 2.302025 -3.077110 3.730017 0.197812 5.793041 
2.055126 52.225220 -2.236634 -0.256763 0.926294 -3.193731 0.000000 0.000000 0.000000 -4.135503 -0.175720 1.513665 4.145331 -0.185478 1.562492 6.512831 0.986328 -0.048821 1.103316 8.771044 -3.191506 -17.556278 -5.078310 -5.892828 -2.837690 -4.305254 16.541334 2.389112 -5.550238 -3.557813 2.223500 -8.307429 -3.154282 15.161203 7.387068 -6.694800 -0.368836 1.568403 19.499487 -0.806712 6.320803 -3.436894 3.238988 4.430839 5.126721 0.300849 -3.420713 5.859775 -1.267955 0.019487 1.203326 2.624900 -13.431232 -7.389606 -1.083754 2.595294 -1.010907 3.259549 0.156975 6.625304 
2.232140 52.258022 -2.189898 -0.210448 0.819580 -2.422046 0.000000 0.000000 0.000000 -4.173557 -0.205046 1.015618 4.447533 -0.273380 1.171862 5.772653 0.527342 0.127038 0.854754 8.764931 -3.231772 -17.089832 -3.693473 -6.526078 -0.816513 -3.893660 15.175044 2.760912 -5.693720 -3.590930 1.727858 -8.868355 -3.190008 15.297750 4.845777 -6.207638 -0.428411 1.504189 18.404770 -0.628999 6.311817 -3.417439 3.121601 4.410674 5.098861 0.291675 -3.557077 5.178955 -0.956879 -0.011650 1.546162 3.239071 -12.873253 -7.426092 -1.443049 3.099275 0.221539 2.493690 0.150963 5.667453 
2.352166 52.250568 -2.061111 -0.248602 0.907886 -1.513791 0.000000 0.000000 0.000000 -4.341193 -0.400356 0.751935 4.752131 -0.312478 0.683584 5.507813 0.283203 0.000000 0.383749 9.368670 -3.376255 -17.220022 -2.101135 -6.517219 -0.250328 -3.619775 14.245321 3.071143 -5.469010 -3.612102 1.018118 -9.812190 -3.377027 16.075506 2.170419 -5.808033 -0.471428 1.233679 17.523649 -0.173728 6.416937 -3.376287 2.935175 4.281699 5.073097 0.837880 -3.697522 4.263603 -1.243578 -0.019439 1.848689 4.137708 -12.524174 -7.678054 -2.067744 3.236672 -1.435614 1.822067 0.065499 4.684789 
